%
M48
M72
T01C0.0394
T02C0.0472
T03C0.0591
T04C0.1260
%
T01
X26681Y24122
X28650Y24122
X46169Y26878
X46169Y27878
X46169Y28878
X45776Y31406
X45776Y33374
T02
X44201Y36524
X46169Y37902
X28059Y40657
X24949Y35835
X24083Y32882
X28059Y31209
X26484Y28256
X24516Y26878
T03
X32094Y27272
X42921Y27272
X41740Y37114
X30913Y37114
T04
X24122Y24122
X24122Y40657
X46563Y40657
X46563Y24122
M30
