G75*
G70*
%OFA0B0*%
%FSLAX24Y24*%
%IPPOS*%
%LPD*%
%AMOC8*
5,1,8,0,0,1.08239X$1,22.5*
%
%ADD10C,0.0063*%
%ADD11R,0.0984X0.0984*%
%ADD12C,0.1102*%
%ADD13C,0.0033*%
%ADD14C,0.0059*%
%ADD15C,0.0787*%
%ADD16R,0.0787X0.0787*%
%ADD17R,0.0689X0.0689*%
%ADD18C,0.0689*%
%ADD19C,0.0866*%
%ADD20R,0.0866X0.0866*%
%ADD21C,0.0320*%
D10*
X036673Y026949D02*
X037241Y026949D01*
X036673Y026949D02*
X036673Y027595D01*
X037241Y027595D01*
X037241Y026949D01*
X037241Y027011D02*
X036673Y027011D01*
X036673Y027073D02*
X037241Y027073D01*
X037241Y027135D02*
X036673Y027135D01*
X036673Y027197D02*
X037241Y027197D01*
X037241Y027259D02*
X036673Y027259D01*
X036673Y027321D02*
X037241Y027321D01*
X037241Y027383D02*
X036673Y027383D01*
X036673Y027445D02*
X037241Y027445D01*
X037241Y027507D02*
X036673Y027507D01*
X036673Y027569D02*
X037241Y027569D01*
X037775Y026949D02*
X038343Y026949D01*
X037775Y026949D02*
X037775Y027595D01*
X038343Y027595D01*
X038343Y026949D01*
X038343Y027011D02*
X037775Y027011D01*
X037775Y027073D02*
X038343Y027073D01*
X038343Y027135D02*
X037775Y027135D01*
X037775Y027197D02*
X038343Y027197D01*
X038343Y027259D02*
X037775Y027259D01*
X037775Y027321D02*
X038343Y027321D01*
X038343Y027383D02*
X037775Y027383D01*
X037775Y027445D02*
X038343Y027445D01*
X038343Y027507D02*
X037775Y027507D01*
X037775Y027569D02*
X038343Y027569D01*
X037162Y036791D02*
X036594Y036791D01*
X036594Y037437D01*
X037162Y037437D01*
X037162Y036791D01*
X037162Y036853D02*
X036594Y036853D01*
X036594Y036915D02*
X037162Y036915D01*
X037162Y036977D02*
X036594Y036977D01*
X036594Y037039D02*
X037162Y037039D01*
X037162Y037101D02*
X036594Y037101D01*
X036594Y037163D02*
X037162Y037163D01*
X037162Y037225D02*
X036594Y037225D01*
X036594Y037287D02*
X037162Y037287D01*
X037162Y037349D02*
X036594Y037349D01*
X036594Y037411D02*
X037162Y037411D01*
X036060Y036791D02*
X035492Y036791D01*
X035492Y037437D01*
X036060Y037437D01*
X036060Y036791D01*
X036060Y036853D02*
X035492Y036853D01*
X035492Y036915D02*
X036060Y036915D01*
X036060Y036977D02*
X035492Y036977D01*
X035492Y037039D02*
X036060Y037039D01*
X036060Y037101D02*
X035492Y037101D01*
X035492Y037163D02*
X036060Y037163D01*
X036060Y037225D02*
X035492Y037225D01*
X035492Y037287D02*
X036060Y037287D01*
X036060Y037349D02*
X035492Y037349D01*
X035492Y037411D02*
X036060Y037411D01*
D11*
X030913Y037114D03*
X032094Y027272D03*
D12*
X042921Y027272D03*
X041740Y037114D03*
D13*
X040651Y033328D02*
X040073Y033328D01*
X040651Y033328D02*
X040651Y033026D01*
X040073Y033026D01*
X040073Y033328D01*
X040073Y033058D02*
X040651Y033058D01*
X040651Y033090D02*
X040073Y033090D01*
X040073Y033122D02*
X040651Y033122D01*
X040651Y033154D02*
X040073Y033154D01*
X040073Y033186D02*
X040651Y033186D01*
X040651Y033218D02*
X040073Y033218D01*
X040073Y033250D02*
X040651Y033250D01*
X040651Y033282D02*
X040073Y033282D01*
X040073Y033314D02*
X040651Y033314D01*
X040651Y031753D02*
X040073Y031753D01*
X040651Y031753D02*
X040651Y031451D01*
X040073Y031451D01*
X040073Y031753D01*
X040073Y031483D02*
X040651Y031483D01*
X040651Y031515D02*
X040073Y031515D01*
X040073Y031547D02*
X040651Y031547D01*
X040651Y031579D02*
X040073Y031579D01*
X040073Y031611D02*
X040651Y031611D01*
X040651Y031643D02*
X040073Y031643D01*
X040073Y031675D02*
X040651Y031675D01*
X040651Y031707D02*
X040073Y031707D01*
X040073Y031739D02*
X040651Y031739D01*
X038328Y031753D02*
X037750Y031753D01*
X038328Y031753D02*
X038328Y031451D01*
X037750Y031451D01*
X037750Y031753D01*
X037750Y031483D02*
X038328Y031483D01*
X038328Y031515D02*
X037750Y031515D01*
X037750Y031547D02*
X038328Y031547D01*
X038328Y031579D02*
X037750Y031579D01*
X037750Y031611D02*
X038328Y031611D01*
X038328Y031643D02*
X037750Y031643D01*
X037750Y031675D02*
X038328Y031675D01*
X038328Y031707D02*
X037750Y031707D01*
X037750Y031739D02*
X038328Y031739D01*
X038328Y033328D02*
X037750Y033328D01*
X038328Y033328D02*
X038328Y033026D01*
X037750Y033026D01*
X037750Y033328D01*
X037750Y033058D02*
X038328Y033058D01*
X038328Y033090D02*
X037750Y033090D01*
X037750Y033122D02*
X038328Y033122D01*
X038328Y033154D02*
X037750Y033154D01*
X037750Y033186D02*
X038328Y033186D01*
X038328Y033218D02*
X037750Y033218D01*
X037750Y033250D02*
X038328Y033250D01*
X038328Y033282D02*
X037750Y033282D01*
X037750Y033314D02*
X038328Y033314D01*
D14*
X042144Y033620D02*
X042144Y032892D01*
X041612Y032892D01*
X041612Y033620D01*
X042144Y033620D01*
X042144Y032950D02*
X041612Y032950D01*
X041612Y033008D02*
X042144Y033008D01*
X042144Y033066D02*
X041612Y033066D01*
X041612Y033124D02*
X042144Y033124D01*
X042144Y033182D02*
X041612Y033182D01*
X041612Y033240D02*
X042144Y033240D01*
X042144Y033298D02*
X041612Y033298D01*
X041612Y033356D02*
X042144Y033356D01*
X042144Y033414D02*
X041612Y033414D01*
X041612Y033472D02*
X042144Y033472D01*
X042144Y033530D02*
X041612Y033530D01*
X041612Y033588D02*
X042144Y033588D01*
X042144Y031888D02*
X042144Y031160D01*
X041612Y031160D01*
X041612Y031888D01*
X042144Y031888D01*
X042144Y031218D02*
X041612Y031218D01*
X041612Y031276D02*
X042144Y031276D01*
X042144Y031334D02*
X041612Y031334D01*
X041612Y031392D02*
X042144Y031392D01*
X042144Y031450D02*
X041612Y031450D01*
X041612Y031508D02*
X042144Y031508D01*
X042144Y031566D02*
X041612Y031566D01*
X041612Y031624D02*
X042144Y031624D01*
X042144Y031682D02*
X041612Y031682D01*
X041612Y031740D02*
X042144Y031740D01*
X042144Y031798D02*
X041612Y031798D01*
X041612Y031856D02*
X042144Y031856D01*
D15*
X045776Y031406D03*
X028650Y024122D03*
D16*
X026681Y024122D03*
X028059Y031209D03*
X045776Y033374D03*
D17*
X046169Y026878D03*
D18*
X046169Y027878D03*
X046169Y028878D03*
D19*
X044201Y036524D03*
X028059Y040657D03*
X024083Y032882D03*
X026484Y028256D03*
D20*
X024516Y026878D03*
X024949Y035835D03*
X046169Y037902D03*
D21*
X043807Y037902D01*
X042528Y037902D01*
X041740Y037114D01*
X036878Y037114D01*
X035776Y037114D02*
X030913Y037114D01*
X030913Y032685D01*
X031996Y031602D01*
X032094Y031504D01*
X032094Y027272D01*
X036957Y027272D01*
X038039Y027291D02*
X038059Y027272D01*
X042921Y027272D01*
X045185Y027272D02*
X045185Y029594D01*
X045776Y030185D01*
X045776Y031406D01*
X041996Y031406D01*
X041878Y031524D01*
X041799Y031602D01*
X040362Y031602D01*
X040362Y033177D02*
X041799Y033177D01*
X041878Y033256D01*
X041996Y033374D01*
X045776Y033374D01*
X046327Y033374D01*
X046917Y032783D01*
X046917Y029870D01*
X046917Y028626D01*
X046169Y027878D01*
X046169Y026878D02*
X045579Y026878D01*
X045185Y027272D01*
X038039Y027291D02*
X038039Y031602D01*
X038039Y033177D02*
X039850Y034988D01*
X041720Y034988D01*
X042665Y034988D01*
X044201Y036524D01*
X035776Y037114D02*
X035539Y037114D01*
X030913Y037114D02*
X030913Y038984D01*
X029240Y040657D01*
X028059Y040657D01*
X026484Y039083D01*
X026484Y038965D01*
X026484Y037370D01*
X024949Y035835D01*
X024083Y032882D02*
X024083Y032862D01*
X024083Y030657D01*
X026484Y028256D01*
X026484Y026484D01*
X026681Y026287D01*
X026681Y024122D01*
M02*
