G75*
G70*
%OFA0B0*%
%FSLAX24Y24*%
%IPPOS*%
%LPD*%
%AMOC8*
5,1,8,0,0,1.08239X$1,22.5*
%
%ADD10C,0.0063*%
%ADD11R,0.0984X0.0984*%
%ADD12C,0.1102*%
%ADD13C,0.0033*%
%ADD14C,0.0050*%
%ADD15C,0.0594*%
%ADD16R,0.0594X0.0594*%
%ADD17R,0.0689X0.0689*%
%ADD18C,0.0689*%
%ADD19R,0.0787X0.0787*%
%ADD20C,0.0866*%
%ADD21R,0.0866X0.0866*%
%ADD22C,0.0787*%
%ADD23C,0.0320*%
D10*
X036673Y026949D02*
X037241Y026949D01*
X036673Y026949D02*
X036673Y027595D01*
X037241Y027595D01*
X037241Y026949D01*
X037241Y027011D02*
X036673Y027011D01*
X036673Y027073D02*
X037241Y027073D01*
X037241Y027135D02*
X036673Y027135D01*
X036673Y027197D02*
X037241Y027197D01*
X037241Y027259D02*
X036673Y027259D01*
X036673Y027321D02*
X037241Y027321D01*
X037241Y027383D02*
X036673Y027383D01*
X036673Y027445D02*
X037241Y027445D01*
X037241Y027507D02*
X036673Y027507D01*
X036673Y027569D02*
X037241Y027569D01*
X037775Y026949D02*
X038343Y026949D01*
X037775Y026949D02*
X037775Y027595D01*
X038343Y027595D01*
X038343Y026949D01*
X038343Y027011D02*
X037775Y027011D01*
X037775Y027073D02*
X038343Y027073D01*
X038343Y027135D02*
X037775Y027135D01*
X037775Y027197D02*
X038343Y027197D01*
X038343Y027259D02*
X037775Y027259D01*
X037775Y027321D02*
X038343Y027321D01*
X038343Y027383D02*
X037775Y027383D01*
X037775Y027445D02*
X038343Y027445D01*
X038343Y027507D02*
X037775Y027507D01*
X037775Y027569D02*
X038343Y027569D01*
X037162Y036791D02*
X036594Y036791D01*
X036594Y037437D01*
X037162Y037437D01*
X037162Y036791D01*
X037162Y036853D02*
X036594Y036853D01*
X036594Y036915D02*
X037162Y036915D01*
X037162Y036977D02*
X036594Y036977D01*
X036594Y037039D02*
X037162Y037039D01*
X037162Y037101D02*
X036594Y037101D01*
X036594Y037163D02*
X037162Y037163D01*
X037162Y037225D02*
X036594Y037225D01*
X036594Y037287D02*
X037162Y037287D01*
X037162Y037349D02*
X036594Y037349D01*
X036594Y037411D02*
X037162Y037411D01*
X036060Y036791D02*
X035492Y036791D01*
X035492Y037437D01*
X036060Y037437D01*
X036060Y036791D01*
X036060Y036853D02*
X035492Y036853D01*
X035492Y036915D02*
X036060Y036915D01*
X036060Y036977D02*
X035492Y036977D01*
X035492Y037039D02*
X036060Y037039D01*
X036060Y037101D02*
X035492Y037101D01*
X035492Y037163D02*
X036060Y037163D01*
X036060Y037225D02*
X035492Y037225D01*
X035492Y037287D02*
X036060Y037287D01*
X036060Y037349D02*
X035492Y037349D01*
X035492Y037411D02*
X036060Y037411D01*
D11*
X030913Y037114D03*
X032094Y027272D03*
D12*
X042921Y027272D03*
X041740Y037114D03*
D13*
X042317Y033328D02*
X042895Y033328D01*
X042895Y033026D01*
X042317Y033026D01*
X042317Y033328D01*
X042317Y033058D02*
X042895Y033058D01*
X042895Y033090D02*
X042317Y033090D01*
X042317Y033122D02*
X042895Y033122D01*
X042895Y033154D02*
X042317Y033154D01*
X042317Y033186D02*
X042895Y033186D01*
X042895Y033218D02*
X042317Y033218D01*
X042317Y033250D02*
X042895Y033250D01*
X042895Y033282D02*
X042317Y033282D01*
X042317Y033314D02*
X042895Y033314D01*
X042895Y031753D02*
X042317Y031753D01*
X042895Y031753D02*
X042895Y031451D01*
X042317Y031451D01*
X042317Y031753D01*
X042317Y031483D02*
X042895Y031483D01*
X042895Y031515D02*
X042317Y031515D01*
X042317Y031547D02*
X042895Y031547D01*
X042895Y031579D02*
X042317Y031579D01*
X042317Y031611D02*
X042895Y031611D01*
X042895Y031643D02*
X042317Y031643D01*
X042317Y031675D02*
X042895Y031675D01*
X042895Y031707D02*
X042317Y031707D01*
X042317Y031739D02*
X042895Y031739D01*
X040572Y031753D02*
X039994Y031753D01*
X040572Y031753D02*
X040572Y031451D01*
X039994Y031451D01*
X039994Y031753D01*
X039994Y031483D02*
X040572Y031483D01*
X040572Y031515D02*
X039994Y031515D01*
X039994Y031547D02*
X040572Y031547D01*
X040572Y031579D02*
X039994Y031579D01*
X039994Y031611D02*
X040572Y031611D01*
X040572Y031643D02*
X039994Y031643D01*
X039994Y031675D02*
X040572Y031675D01*
X040572Y031707D02*
X039994Y031707D01*
X039994Y031739D02*
X040572Y031739D01*
X040572Y033328D02*
X039994Y033328D01*
X040572Y033328D02*
X040572Y033026D01*
X039994Y033026D01*
X039994Y033328D01*
X039994Y033058D02*
X040572Y033058D01*
X040572Y033090D02*
X039994Y033090D01*
X039994Y033122D02*
X040572Y033122D01*
X040572Y033154D02*
X039994Y033154D01*
X039994Y033186D02*
X040572Y033186D01*
X040572Y033218D02*
X039994Y033218D01*
X039994Y033250D02*
X040572Y033250D01*
X040572Y033282D02*
X039994Y033282D01*
X039994Y033314D02*
X040572Y033314D01*
D14*
X044465Y033278D02*
X044465Y032828D01*
X043937Y032828D01*
X043937Y033278D01*
X044465Y033278D01*
X044465Y032877D02*
X043937Y032877D01*
X043937Y032926D02*
X044465Y032926D01*
X044465Y032975D02*
X043937Y032975D01*
X043937Y033024D02*
X044465Y033024D01*
X044465Y033073D02*
X043937Y033073D01*
X043937Y033122D02*
X044465Y033122D01*
X044465Y033171D02*
X043937Y033171D01*
X043937Y033220D02*
X044465Y033220D01*
X044465Y033269D02*
X043937Y033269D01*
X044465Y031951D02*
X044465Y031501D01*
X043937Y031501D01*
X043937Y031951D01*
X044465Y031951D01*
X044465Y031550D02*
X043937Y031550D01*
X043937Y031599D02*
X044465Y031599D01*
X044465Y031648D02*
X043937Y031648D01*
X043937Y031697D02*
X044465Y031697D01*
X044465Y031746D02*
X043937Y031746D01*
X043937Y031795D02*
X044465Y031795D01*
X044465Y031844D02*
X043937Y031844D01*
X043937Y031893D02*
X044465Y031893D01*
X044465Y031942D02*
X043937Y031942D01*
D15*
X045776Y031406D03*
D16*
X045776Y033374D03*
D17*
X046169Y026878D03*
D18*
X046169Y027878D03*
X046169Y028878D03*
D19*
X026681Y024122D03*
X028059Y031209D03*
D20*
X024949Y032882D03*
X026484Y028256D03*
X028059Y040657D03*
X044201Y036524D03*
D21*
X046169Y037902D03*
X024516Y026878D03*
X024083Y035835D03*
D22*
X028650Y024122D03*
D23*
X026681Y024122D02*
X026681Y026287D01*
X026484Y026484D01*
X026484Y028256D01*
X026484Y031346D01*
X024949Y032882D01*
X024083Y035835D02*
X026445Y038197D01*
X026445Y039043D01*
X028059Y040657D01*
X029240Y040657D01*
X030913Y038984D01*
X030913Y037114D01*
X035776Y037114D01*
X035539Y037114D01*
X036878Y037114D02*
X041740Y037114D01*
X042528Y037902D01*
X043807Y037902D01*
X046169Y037902D01*
X044201Y036524D02*
X043217Y036524D01*
X042626Y035933D01*
X040283Y033591D01*
X040283Y033177D01*
X040283Y031602D02*
X040283Y030835D01*
X038295Y028846D01*
X038059Y028610D01*
X038059Y027272D01*
X042921Y027272D01*
X045185Y027272D02*
X045185Y029594D01*
X045776Y030185D01*
X045776Y031406D01*
X045106Y031406D01*
X044785Y031726D01*
X044201Y031726D01*
X043380Y031726D01*
X043374Y031720D01*
X043256Y031602D01*
X042606Y031602D01*
X042606Y033177D02*
X043256Y033177D01*
X043374Y033059D01*
X043380Y033053D01*
X044201Y033053D01*
X044864Y033053D01*
X044870Y033059D01*
X045185Y033374D01*
X045776Y033374D01*
X046327Y033374D01*
X046917Y032783D01*
X046917Y029870D01*
X046917Y028626D01*
X046169Y027878D01*
X046169Y026878D02*
X045579Y026878D01*
X045185Y027272D01*
X036957Y027272D02*
X032094Y027272D01*
X032094Y031504D01*
X031996Y031602D01*
X030913Y032685D01*
X030913Y037114D01*
M02*
