G75*
G70*
%OFA0B0*%
%FSLAX24Y24*%
%IPPOS*%
%LPD*%
%AMOC8*
5,1,8,0,0,1.08239X$1,22.5*
%
%ADD10C,0.0071*%
%ADD11R,0.1064X0.1064*%
%ADD12C,0.1182*%
%ADD13C,0.0041*%
%ADD14C,0.0058*%
%ADD15C,0.0674*%
%ADD16R,0.0674X0.0674*%
%ADD17R,0.0769X0.0769*%
%ADD18C,0.0769*%
%ADD19R,0.0867X0.0867*%
%ADD20C,0.0946*%
%ADD21R,0.0946X0.0946*%
%ADD22C,0.1340*%
%ADD23C,0.0867*%
D10*
X036637Y026913D02*
X037277Y026913D01*
X036637Y026913D02*
X036637Y027631D01*
X037277Y027631D01*
X037277Y026913D01*
X037277Y026983D02*
X036637Y026983D01*
X036637Y027053D02*
X037277Y027053D01*
X037277Y027123D02*
X036637Y027123D01*
X036637Y027193D02*
X037277Y027193D01*
X037277Y027263D02*
X036637Y027263D01*
X036637Y027333D02*
X037277Y027333D01*
X037277Y027403D02*
X036637Y027403D01*
X036637Y027473D02*
X037277Y027473D01*
X037277Y027543D02*
X036637Y027543D01*
X036637Y027613D02*
X037277Y027613D01*
X037739Y026913D02*
X038379Y026913D01*
X037739Y026913D02*
X037739Y027631D01*
X038379Y027631D01*
X038379Y026913D01*
X038379Y026983D02*
X037739Y026983D01*
X037739Y027053D02*
X038379Y027053D01*
X038379Y027123D02*
X037739Y027123D01*
X037739Y027193D02*
X038379Y027193D01*
X038379Y027263D02*
X037739Y027263D01*
X037739Y027333D02*
X038379Y027333D01*
X038379Y027403D02*
X037739Y027403D01*
X037739Y027473D02*
X038379Y027473D01*
X038379Y027543D02*
X037739Y027543D01*
X037739Y027613D02*
X038379Y027613D01*
X037198Y036755D02*
X036558Y036755D01*
X036558Y037473D01*
X037198Y037473D01*
X037198Y036755D01*
X037198Y036825D02*
X036558Y036825D01*
X036558Y036895D02*
X037198Y036895D01*
X037198Y036965D02*
X036558Y036965D01*
X036558Y037035D02*
X037198Y037035D01*
X037198Y037105D02*
X036558Y037105D01*
X036558Y037175D02*
X037198Y037175D01*
X037198Y037245D02*
X036558Y037245D01*
X036558Y037315D02*
X037198Y037315D01*
X037198Y037385D02*
X036558Y037385D01*
X036558Y037455D02*
X037198Y037455D01*
X036096Y036755D02*
X035456Y036755D01*
X035456Y037473D01*
X036096Y037473D01*
X036096Y036755D01*
X036096Y036825D02*
X035456Y036825D01*
X035456Y036895D02*
X036096Y036895D01*
X036096Y036965D02*
X035456Y036965D01*
X035456Y037035D02*
X036096Y037035D01*
X036096Y037105D02*
X035456Y037105D01*
X035456Y037175D02*
X036096Y037175D01*
X036096Y037245D02*
X035456Y037245D01*
X035456Y037315D02*
X036096Y037315D01*
X036096Y037385D02*
X035456Y037385D01*
X035456Y037455D02*
X036096Y037455D01*
D11*
X030913Y037114D03*
X032094Y027272D03*
D12*
X042921Y027272D03*
X041740Y037114D03*
D13*
X042281Y033364D02*
X042931Y033364D01*
X042931Y032990D01*
X042281Y032990D01*
X042281Y033364D01*
X042281Y033030D02*
X042931Y033030D01*
X042931Y033070D02*
X042281Y033070D01*
X042281Y033110D02*
X042931Y033110D01*
X042931Y033150D02*
X042281Y033150D01*
X042281Y033190D02*
X042931Y033190D01*
X042931Y033230D02*
X042281Y033230D01*
X042281Y033270D02*
X042931Y033270D01*
X042931Y033310D02*
X042281Y033310D01*
X042281Y033350D02*
X042931Y033350D01*
X042931Y031789D02*
X042281Y031789D01*
X042931Y031789D02*
X042931Y031415D01*
X042281Y031415D01*
X042281Y031789D01*
X042281Y031455D02*
X042931Y031455D01*
X042931Y031495D02*
X042281Y031495D01*
X042281Y031535D02*
X042931Y031535D01*
X042931Y031575D02*
X042281Y031575D01*
X042281Y031615D02*
X042931Y031615D01*
X042931Y031655D02*
X042281Y031655D01*
X042281Y031695D02*
X042931Y031695D01*
X042931Y031735D02*
X042281Y031735D01*
X042281Y031775D02*
X042931Y031775D01*
X040608Y031789D02*
X039958Y031789D01*
X040608Y031789D02*
X040608Y031415D01*
X039958Y031415D01*
X039958Y031789D01*
X039958Y031455D02*
X040608Y031455D01*
X040608Y031495D02*
X039958Y031495D01*
X039958Y031535D02*
X040608Y031535D01*
X040608Y031575D02*
X039958Y031575D01*
X039958Y031615D02*
X040608Y031615D01*
X040608Y031655D02*
X039958Y031655D01*
X039958Y031695D02*
X040608Y031695D01*
X040608Y031735D02*
X039958Y031735D01*
X039958Y031775D02*
X040608Y031775D01*
X040608Y033364D02*
X039958Y033364D01*
X040608Y033364D02*
X040608Y032990D01*
X039958Y032990D01*
X039958Y033364D01*
X039958Y033030D02*
X040608Y033030D01*
X040608Y033070D02*
X039958Y033070D01*
X039958Y033110D02*
X040608Y033110D01*
X040608Y033150D02*
X039958Y033150D01*
X039958Y033190D02*
X040608Y033190D01*
X040608Y033230D02*
X039958Y033230D01*
X039958Y033270D02*
X040608Y033270D01*
X040608Y033310D02*
X039958Y033310D01*
X039958Y033350D02*
X040608Y033350D01*
D14*
X044501Y033314D02*
X044501Y032792D01*
X043901Y032792D01*
X043901Y033314D01*
X044501Y033314D01*
X044501Y032849D02*
X043901Y032849D01*
X043901Y032906D02*
X044501Y032906D01*
X044501Y032963D02*
X043901Y032963D01*
X043901Y033020D02*
X044501Y033020D01*
X044501Y033077D02*
X043901Y033077D01*
X043901Y033134D02*
X044501Y033134D01*
X044501Y033191D02*
X043901Y033191D01*
X043901Y033248D02*
X044501Y033248D01*
X044501Y033305D02*
X043901Y033305D01*
X044501Y031987D02*
X044501Y031465D01*
X043901Y031465D01*
X043901Y031987D01*
X044501Y031987D01*
X044501Y031522D02*
X043901Y031522D01*
X043901Y031579D02*
X044501Y031579D01*
X044501Y031636D02*
X043901Y031636D01*
X043901Y031693D02*
X044501Y031693D01*
X044501Y031750D02*
X043901Y031750D01*
X043901Y031807D02*
X044501Y031807D01*
X044501Y031864D02*
X043901Y031864D01*
X043901Y031921D02*
X044501Y031921D01*
X044501Y031978D02*
X043901Y031978D01*
D15*
X045776Y031406D03*
D16*
X045776Y033374D03*
D17*
X046169Y026878D03*
D18*
X046169Y027878D03*
X046169Y028878D03*
D19*
X028059Y031209D03*
X026681Y024122D03*
D20*
X026484Y028256D03*
X024949Y032882D03*
X028059Y040657D03*
X044201Y036524D03*
D21*
X046169Y037902D03*
X024516Y026878D03*
X024083Y035835D03*
D22*
X024122Y024122D03*
X024122Y040657D03*
X046563Y040657D03*
X046563Y024122D03*
D23*
X028650Y024122D03*
M02*
